# xmcd CD database file
#
# Track frame offsets:
#	150
#	21547
#	42572
#	55130
#	73455
#	110300
#	122342
#	140505
#	182147
#	203097
#	227372
#
# Disc length: 3747 seconds
#
# Revision: 0
# Processed by: cddbd v1.5.2PL0 Copyright (c) Steve Scherf et al.
# Submitted via: CDex 1.70beta2
#
DISCID=9e0ea10b
DTITLE=Jugendmusikschule  Hochschwarzwald (Bigband) - Jetz isch Zitt
DYEAR=1998
DGENRE=Jazz
TTITLE0=Now's the time
TTITLE1=Frillero
TTITLE2=Every day I have the blues
TTITLE3=Smoke get's in your eyes
TTITLE4=Tribute to the count
TTITLE5=How high the moon
TTITLE6=Girl talk
TTITLE7=Computer
TTITLE8=Skylark
TTITLE9=Well you needn't
TTITLE10=On broadway
EXTD=YEAR: 1998
EXTT0=
EXTT1=
EXTT2=
EXTT3=
EXTT4=
EXTT5=
EXTT6=
EXTT7=
EXTT8=
EXTT9=
EXTT10=
PLAYORDER=
